<svg id="visual" viewBox="0 0 900 600" width="900" height="600" xmlns="http://www.w3.org/2000/svg" xmlns:xlink="http://www.w3.org/1999/xlink" version="1.1"><rect x="0" y="0" width="900" height="600" fill="#001220"></rect><path d="M557 600L556.8 585.7C556.7 571.3 556.3 542.7 572.2 514.2C588 485.7 620 457.3 623.7 428.8C627.3 400.3 602.7 371.7 595.8 343C589 314.3 600 285.7 597.3 257C594.7 228.3 578.3 199.7 572.3 171.2C566.3 142.7 570.7 114.3 574.3 85.8C578 57.3 581 28.7 582.5 14.3L584 0L900 0L900 14.3C900 28.7 900 57.3 900 85.8C900 114.3 900 142.7 900 171.2C900 199.7 900 228.3 900 257C900 285.7 900 314.3 900 343C900 371.7 900 400.3 900 428.8C900 457.3 900 485.7 900 514.2C900 542.7 900 571.3 900 585.7L900 600Z" fill="#c62368"></path><path d="M666 600L660.3 585.7C654.7 571.3 643.3 542.7 640.2 514.2C637 485.7 642 457.3 643.3 428.8C644.7 400.3 642.3 371.7 641.8 343C641.3 314.3 642.7 285.7 638.7 257C634.7 228.3 625.3 199.7 630.8 171.2C636.3 142.7 656.7 114.3 655.8 85.8C655 57.3 633 28.7 622 14.3L611 0L900 0L900 14.3C900 28.7 900 57.3 900 85.8C900 114.3 900 142.7 900 171.2C900 199.7 900 228.3 900 257C900 285.7 900 314.3 900 343C900 371.7 900 400.3 900 428.8C900 457.3 900 485.7 900 514.2C900 542.7 900 571.3 900 585.7L900 600Z" fill="#d53867"></path><path d="M768 600L750.3 585.7C732.7 571.3 697.3 542.7 696.3 514.2C695.3 485.7 728.7 457.3 743.7 428.8C758.7 400.3 755.3 371.7 744 343C732.7 314.3 713.3 285.7 710.2 257C707 228.3 720 199.7 714.3 171.2C708.7 142.7 684.3 114.3 674.5 85.8C664.7 57.3 669.3 28.7 671.7 14.3L674 0L900 0L900 14.3C900 28.7 900 57.3 900 85.8C900 114.3 900 142.7 900 171.2C900 199.7 900 228.3 900 257C900 285.7 900 314.3 900 343C900 371.7 900 400.3 900 428.8C900 457.3 900 485.7 900 514.2C900 542.7 900 571.3 900 585.7L900 600Z" fill="#e34c67"></path><path d="M775 600L775.5 585.7C776 571.3 777 542.7 773 514.2C769 485.7 760 457.3 757.7 428.8C755.3 400.3 759.7 371.7 757.2 343C754.7 314.3 745.3 285.7 743.3 257C741.3 228.3 746.7 199.7 752.3 171.2C758 142.7 764 114.3 767.2 85.8C770.3 57.3 770.7 28.7 770.8 14.3L771 0L900 0L900 14.3C900 28.7 900 57.3 900 85.8C900 114.3 900 142.7 900 171.2C900 199.7 900 228.3 900 257C900 285.7 900 314.3 900 343C900 371.7 900 400.3 900 428.8C900 457.3 900 485.7 900 514.2C900 542.7 900 571.3 900 585.7L900 600Z" fill="#ef5f67"></path><path d="M848 600L843 585.7C838 571.3 828 542.7 818.3 514.2C808.7 485.7 799.3 457.3 803.8 428.8C808.3 400.3 826.7 371.7 835.5 343C844.3 314.3 843.7 285.7 839 257C834.3 228.3 825.7 199.7 825.3 171.2C825 142.7 833 114.3 832.8 85.8C832.7 57.3 824.3 28.7 820.2 14.3L816 0L900 0L900 14.3C900 28.7 900 57.3 900 85.8C900 114.3 900 142.7 900 171.2C900 199.7 900 228.3 900 257C900 285.7 900 314.3 900 343C900 371.7 900 400.3 900 428.8C900 457.3 900 485.7 900 514.2C900 542.7 900 571.3 900 585.7L900 600Z" fill="#fa7268"></path></svg>